<svg width="64" height="64" viewBox="0 0 64 64" fill="none" xmlns="http://www.w3.org/2000/svg">
<rect width="64" height="64" fill="#2A6264"/>
<path d="M26.2524 10.7933C25.0567 9.20853 23.2375 8.63952 23.7538 8.84496C24.5071 9.1447 24.7113 11.0122 23.7538 11.6925C22.6992 12.4419 21.3246 13.3739 20.7408 14.3902C19.6321 16.3203 19.6527 18.4972 20.4211 20.385L25.4466 25.3307M26.2524 10.7933C26.8013 11.5207 27.2188 12.4621 27.2188 13.6408M26.2524 10.7933C26.4741 9.94401 26.4654 8.69509 27.52 7.64601C28.8512 6.32164 30.2317 5.99743 30.985 5.09819C31.8639 4.0491 32.0395 3.59948 32.0395 3C32.0395 3.59948 32.1002 4.0491 32.9791 5.09819C33.7324 5.99743 35.1128 6.32164 36.4441 7.64601C37.4986 8.69509 37.4899 9.94401 37.7116 10.7933M28.5746 23.2326C26.6162 22.783 25.9182 20.6335 26.7668 19.1861C27.8213 17.3876 29.2661 16.5976 30.533 15.5892C31.2862 14.9897 31.9245 13.9406 31.9245 13.9406C31.9245 13.9406 32.6778 14.9897 33.431 15.5892C34.698 16.5976 36.1428 17.3876 37.1972 19.1861C38.0459 20.6335 37.3479 22.783 35.3894 23.2326M37.7116 10.7933C38.9073 9.20853 40.7265 8.63952 40.2102 8.84496C39.457 9.1447 39.2528 11.0122 40.2102 11.6925C41.2648 12.4419 42.6395 13.3739 43.2233 14.3902C44.3319 16.3203 44.3113 18.4972 43.5429 20.385L38.7037 25.3307M37.7116 10.7933C37.1628 11.5207 36.7453 12.4621 36.7453 13.6408" stroke="#765226" stroke-width="2.5" stroke-linecap="round" stroke-linejoin="round"/>
<path d="M26.2524 10.7933C25.0567 9.20853 23.2375 8.63952 23.7538 8.84496C24.5071 9.1447 24.7113 11.0122 23.7538 11.6925C22.6992 12.4419 21.3246 13.3739 20.7408 14.3902C19.6321 16.3203 19.6527 18.4972 20.4211 20.385L25.4466 25.3307M26.2524 10.7933C26.8013 11.5207 27.2188 12.4621 27.2188 13.6408M26.2524 10.7933C26.4741 9.94401 26.4654 8.69509 27.52 7.64601C28.8512 6.32164 30.2317 5.99743 30.985 5.09819C31.8639 4.0491 32.0395 3.59948 32.0395 3C32.0395 3.59948 32.1002 4.0491 32.9791 5.09819C33.7324 5.99743 35.1128 6.32164 36.4441 7.64601C37.4986 8.69509 37.4899 9.94401 37.7116 10.7933M28.5746 23.2326C26.6162 22.783 25.9182 20.6335 26.7668 19.1861C27.8213 17.3876 29.2661 16.5976 30.533 15.5892C31.2862 14.9897 31.9245 13.9406 31.9245 13.9406C31.9245 13.9406 32.6778 14.9897 33.431 15.5892C34.698 16.5976 36.1428 17.3876 37.1972 19.1861C38.0459 20.6335 37.3479 22.783 35.3894 23.2326M37.7116 10.7933C38.9073 9.20853 40.7265 8.63952 40.2102 8.84496C39.457 9.1447 39.2528 11.0122 40.2102 11.6925C41.2648 12.4419 42.6395 13.3739 43.2233 14.3902C44.3319 16.3203 44.3113 18.4972 43.5429 20.385L38.7037 25.3307M37.7116 10.7933C37.1628 11.5207 36.7453 12.4621 36.7453 13.6408" stroke="#E9F9FA" stroke-width="2.5" stroke-linecap="round" stroke-linejoin="round"/>
<path d="M38.0125 53.2067C39.2082 54.7915 41.0273 55.3605 40.5111 55.155C39.7578 54.8553 39.5536 52.9878 40.5111 52.3075C41.5657 51.5581 42.9403 50.6261 43.5241 49.6098C44.6328 47.6797 44.6122 45.5028 43.8438 43.615L38.8183 38.6693M38.0125 53.2067C37.4636 52.4793 37.0461 51.5379 37.0461 50.3592M38.0125 53.2067C37.7908 54.056 37.7995 55.3049 36.7449 56.354C35.4137 57.6784 34.0332 58.0026 33.2799 58.9018C32.401 59.9509 32.2254 60.4005 32.2254 61C32.2254 60.4005 32.1647 59.9509 31.2858 58.9018C30.5325 58.0026 29.1521 57.6784 27.8208 56.354C26.7663 55.3049 26.7749 54.056 26.5533 53.2067M35.6903 40.7674C37.6487 41.217 38.3467 43.3665 37.4981 44.8139C36.4436 46.6124 34.9988 47.4024 33.7319 48.4108C32.9787 49.0103 32.3404 50.0594 32.3404 50.0594C32.3404 50.0594 31.587 49.0103 30.8339 48.4108C29.5669 47.4024 28.1221 46.6124 27.0677 44.8139C26.219 43.3665 26.917 41.217 28.8754 40.7674M26.5533 53.2067C25.3576 54.7915 23.5384 55.3605 24.0547 55.155C24.8079 54.8553 25.0121 52.9878 24.0547 52.3075C23.0001 51.5581 21.6254 50.6261 21.0416 49.6098C19.933 47.6797 19.9536 45.5028 20.7219 43.615L25.5612 38.6693M26.5533 53.2067C27.1021 52.4793 27.5196 51.5379 27.5196 50.3592" stroke="#765226" stroke-width="2.5" stroke-linecap="round" stroke-linejoin="round"/>
<path d="M38.0125 53.2067C39.2082 54.7915 41.0273 55.3605 40.5111 55.155C39.7578 54.8553 39.5536 52.9878 40.5111 52.3075C41.5657 51.5581 42.9403 50.6261 43.5241 49.6098C44.6328 47.6797 44.6122 45.5028 43.8438 43.615L38.8183 38.6693M38.0125 53.2067C37.4636 52.4793 37.0461 51.5379 37.0461 50.3592M38.0125 53.2067C37.7908 54.056 37.7995 55.3049 36.7449 56.354C35.4137 57.6784 34.0332 58.0026 33.2799 58.9018C32.401 59.9509 32.2254 60.4005 32.2254 61C32.2254 60.4005 32.1647 59.9509 31.2858 58.9018C30.5325 58.0026 29.1521 57.6784 27.8208 56.354C26.7663 55.3049 26.7749 54.056 26.5533 53.2067M35.6903 40.7674C37.6487 41.217 38.3467 43.3665 37.4981 44.8139C36.4436 46.6124 34.9988 47.4024 33.7319 48.4108C32.9787 49.0103 32.3404 50.0594 32.3404 50.0594C32.3404 50.0594 31.587 49.0103 30.8339 48.4108C29.5669 47.4024 28.1221 46.6124 27.0677 44.8139C26.219 43.3665 26.917 41.217 28.8754 40.7674M26.5533 53.2067C25.3576 54.7915 23.5384 55.3605 24.0547 55.155C24.8079 54.8553 25.0121 52.9878 24.0547 52.3075C23.0001 51.5581 21.6254 50.6261 21.0416 49.6098C19.933 47.6797 19.9536 45.5028 20.7219 43.615L25.5612 38.6693M26.5533 53.2067C27.1021 52.4793 27.5196 51.5379 27.5196 50.3592" stroke="#E9F9FA" stroke-width="2.5" stroke-linecap="round" stroke-linejoin="round"/>
<path d="M10.8338 37.8328C9.24079 39.0223 8.66882 40.8321 8.87533 40.3185C9.17663 39.5691 11.0538 39.366 11.7377 40.3185C12.4909 41.3676 13.4278 42.7352 14.4494 43.3159C16.3895 44.4189 18.5777 44.3984 20.4753 43.634L25.4468 38.6345M10.8338 37.8328C11.5649 37.2868 12.5112 36.8715 13.6961 36.8715M10.8338 37.8328C9.98008 37.6123 8.72468 37.6209 7.67014 36.5718C6.33889 35.2474 6.013 33.8741 5.10909 33.1247C4.05455 32.2504 3.6026 32.0756 3 32.0756C3.6026 32.0756 4.05455 32.0153 5.10909 31.1409C6.013 30.3915 6.33889 29.0182 7.67014 27.6938C8.72468 26.6447 9.98008 26.6534 10.8338 26.4328M23.3377 35.5226C22.8857 37.4709 20.7251 38.1653 19.2701 37.3211C17.4623 36.2721 16.6683 34.8347 15.6546 33.5743C15.0519 32.825 13.9974 32.19 13.9974 32.19C13.9974 32.19 15.0519 31.4406 15.6546 30.6913C16.6683 29.4309 17.4623 27.9936 19.2701 26.9445C20.7251 26.1003 22.8857 26.7947 23.3377 28.743M10.8338 26.4328C9.24079 25.2433 8.66882 23.4335 8.87533 23.9471C9.17663 24.6965 11.0538 24.8996 11.7377 23.9471C12.4909 22.898 13.4278 21.5304 14.4494 20.9497C16.3895 19.8467 18.5777 19.8672 20.4753 20.6316L25.4468 25.4458M10.8338 26.4328C11.5649 26.9788 12.5112 27.3942 13.6961 27.3942" stroke="#765226" stroke-width="2.5" stroke-linecap="round" stroke-linejoin="round"/>
<path d="M10.8338 37.8328C9.24079 39.0223 8.66882 40.8321 8.87533 40.3185C9.17663 39.5691 11.0538 39.366 11.7377 40.3185C12.4909 41.3676 13.4278 42.7352 14.4494 43.3159C16.3895 44.4189 18.5777 44.3984 20.4753 43.634L25.4468 38.6345M10.8338 37.8328C11.5649 37.2868 12.5112 36.8715 13.6961 36.8715M10.8338 37.8328C9.98008 37.6123 8.72468 37.6209 7.67014 36.5718C6.33889 35.2474 6.013 33.8741 5.10909 33.1247C4.05455 32.2504 3.6026 32.0756 3 32.0756C3.6026 32.0756 4.05455 32.0153 5.10909 31.1409C6.013 30.3915 6.33889 29.0182 7.67014 27.6938C8.72468 26.6447 9.98008 26.6534 10.8338 26.4328M23.3377 35.5226C22.8857 37.4709 20.7251 38.1653 19.2701 37.3211C17.4623 36.2721 16.6683 34.8347 15.6546 33.5743C15.0519 32.825 13.9974 32.19 13.9974 32.19C13.9974 32.19 15.0519 31.4406 15.6546 30.6913C16.6683 29.4309 17.4623 27.9936 19.2701 26.9445C20.7251 26.1003 22.8857 26.7947 23.3377 28.743M10.8338 26.4328C9.24079 25.2433 8.66882 23.4335 8.87533 23.9471C9.17663 24.6965 11.0538 24.8996 11.7377 23.9471C12.4909 22.898 13.4278 21.5304 14.4494 20.9497C16.3895 19.8467 18.5777 19.8672 20.4753 20.6316L25.4468 25.4458M10.8338 26.4328C11.5649 26.9788 12.5112 27.3942 13.6961 27.3942" stroke="#E9F9FA" stroke-width="2.5" stroke-linecap="round" stroke-linejoin="round"/>
<path d="M53.1662 26.132C54.7592 24.9425 55.3312 23.1327 55.1247 23.6464C54.8234 24.3957 52.9462 24.5988 52.2623 23.6464C51.5091 22.5972 50.5722 21.2297 49.5506 20.6489C47.6105 19.546 45.4223 19.5664 43.5247 20.3309L38.5532 25.3304M53.1662 26.132C52.4351 26.6781 51.4888 27.0934 50.3039 27.0934M53.1662 26.132C54.0199 26.3526 55.2753 26.3439 56.3299 27.393C57.6611 28.7174 57.987 30.0907 58.8909 30.8402C59.9455 31.7145 60.3974 31.8892 61 31.8892C60.3974 31.8892 59.9455 31.9496 58.8909 32.8239C57.987 33.5734 57.6611 34.9466 56.3299 36.271C55.2753 37.3201 54.0199 37.3115 53.1662 37.532M40.6623 28.4422C41.1143 26.4939 43.2749 25.7995 44.7299 26.6438C46.5377 27.6928 47.3317 29.1301 48.3454 30.3905C48.948 31.1398 50.0026 31.7748 50.0026 31.7748C50.0026 31.7748 48.948 32.5243 48.3454 33.2735C47.3317 34.5339 46.5377 35.9713 44.7299 37.0203C43.2749 37.8645 41.1143 37.1702 40.6623 35.2218M53.1662 37.532C54.7592 38.7216 55.3312 40.5313 55.1247 40.0177C54.8234 39.2684 52.9462 39.0652 52.2623 40.0177C51.5091 41.0668 50.5722 42.4344 49.5506 43.0152C47.6105 44.1181 45.4223 44.0976 43.5247 43.3332L38.5532 38.519M53.1662 37.532C52.4351 36.986 51.4888 36.5707 50.3039 36.5707" stroke="#765226" stroke-width="2.5" stroke-linecap="round" stroke-linejoin="round"/>
<path d="M53.1662 26.132C54.7592 24.9425 55.3312 23.1327 55.1247 23.6464C54.8234 24.3957 52.9462 24.5988 52.2623 23.6464C51.5091 22.5972 50.5722 21.2297 49.5506 20.6489C47.6105 19.546 45.4223 19.5664 43.5247 20.3309L38.5532 25.3304M53.1662 26.132C52.4351 26.6781 51.4888 27.0934 50.3039 27.0934M53.1662 26.132C54.0199 26.3526 55.2753 26.3439 56.3299 27.393C57.6611 28.7174 57.987 30.0907 58.8909 30.8402C59.9455 31.7145 60.3974 31.8892 61 31.8892C60.3974 31.8892 59.9455 31.9496 58.8909 32.8239C57.987 33.5734 57.6611 34.9466 56.3299 36.271C55.2753 37.3201 54.0199 37.3115 53.1662 37.532M40.6623 28.4422C41.1143 26.4939 43.2749 25.7995 44.7299 26.6438C46.5377 27.6928 47.3317 29.1301 48.3454 30.3905C48.948 31.1398 50.0026 31.7748 50.0026 31.7748C50.0026 31.7748 48.948 32.5243 48.3454 33.2735C47.3317 34.5339 46.5377 35.9713 44.7299 37.0203C43.2749 37.8645 41.1143 37.1702 40.6623 35.2218M53.1662 37.532C54.7592 38.7216 55.3312 40.5313 55.1247 40.0177C54.8234 39.2684 52.9462 39.0652 52.2623 40.0177C51.5091 41.0668 50.5722 42.4344 49.5506 43.0152C47.6105 44.1181 45.4223 44.0976 43.5247 43.3332L38.5532 38.519M53.1662 37.532C52.4351 36.986 51.4888 36.5707 50.3039 36.5707" stroke="#E9F9FA" stroke-width="2.5" stroke-linecap="round" stroke-linejoin="round"/>
<path d="M40.3163 31.9243C40.3163 36.4424 36.6328 40.1161 32.0754 40.1161C27.5179 40.1161 23.8345 36.4424 23.8345 31.9243C23.8345 27.4061 27.5179 23.7324 32.0754 23.7324C36.6328 23.7324 40.3163 27.4061 40.3163 31.9243Z" stroke="#765226" stroke-width="2.5"/>
<path d="M40.3163 31.9243C40.3163 36.4424 36.6328 40.1161 32.0754 40.1161C27.5179 40.1161 23.8345 36.4424 23.8345 31.9243C23.8345 27.4061 27.5179 23.7324 32.0754 23.7324C36.6328 23.7324 40.3163 27.4061 40.3163 31.9243Z" stroke="#E9F9FA" stroke-width="2.5"/>
<path d="M35.0661 31.8397C35.0661 33.5205 33.6946 34.8941 31.9892 34.8941C30.2838 34.8941 28.9124 33.5205 28.9124 31.8397C28.9124 30.1588 30.2838 28.7852 31.9892 28.7852C33.6946 28.7852 35.0661 30.1588 35.0661 31.8397Z" stroke="#765226" stroke-width="2.5"/>
<path d="M35.0661 31.8397C35.0661 33.5205 33.6946 34.8941 31.9892 34.8941C30.2838 34.8941 28.9124 33.5205 28.9124 31.8397C28.9124 30.1588 30.2838 28.7852 31.9892 28.7852C33.6946 28.7852 35.0661 30.1588 35.0661 31.8397Z" stroke="#E9F9FA" stroke-width="2.5"/>
</svg>
